<?xml version="1.0" encoding="UTF-8" standalone="no"?>
<svg
   id="Using_Technology"
   data-name="Using Technology"
   viewBox="0 0 64 64"
   version="1.1"
   sodipodi:docname="13181952161641126202.svg"
   inkscape:version="1.2 (dc2aedaf03, 2022-05-15)"
   xmlns:inkscape="http://www.inkscape.org/namespaces/inkscape"
   xmlns:sodipodi="http://sodipodi.sourceforge.net/DTD/sodipodi-0.dtd"
   xmlns:xlink="http://www.w3.org/1999/xlink"
   xmlns="http://www.w3.org/2000/svg"
   xmlns:svg="http://www.w3.org/2000/svg">
  <sodipodi:namedview
     id="namedview21"
     pagecolor="#ffffff"
     bordercolor="#000000"
     borderopacity="0.25"
     inkscape:showpageshadow="2"
     inkscape:pageopacity="0.0"
     inkscape:pagecheckerboard="0"
     inkscape:deskcolor="#d1d1d1"
     showgrid="false"
     inkscape:zoom="5.8004853"
     inkscape:cx="6.551176"
     inkscape:cy="36.721065"
     inkscape:window-width="1366"
     inkscape:window-height="705"
     inkscape:window-x="-8"
     inkscape:window-y="-8"
     inkscape:window-maximized="1"
     inkscape:current-layer="Using_Technology" />
  <defs
     id="defs10">
    <linearGradient
       id="New_Gradient_Swatch_1"
       x1="-8.54"
       y1="47.531"
       x2="43.808"
       y2="-2.573"
       gradientUnits="userSpaceOnUse">
      <stop
         offset="0"
         stop-color="#fff200"
         id="stop2" />
      <stop
         offset="1"
         stop-color="#cd118c"
         id="stop4" />
    </linearGradient>
    <linearGradient
       id="New_Gradient_Swatch_1-2"
       x1="-5.91"
       y1="50.278"
       x2="46.437"
       y2="0.174"
       xlink:href="#New_Gradient_Swatch_1" />
    <linearGradient
       id="New_Gradient_Swatch_1-3"
       x1="-0.831"
       y1="55.584"
       x2="51.516"
       y2="5.48"
       xlink:href="#New_Gradient_Swatch_1" />
    <linearGradient
       id="New_Gradient_Swatch_1-4"
       x1="10.431"
       y1="67.35"
       x2="62.778"
       y2="17.246"
       xlink:href="#New_Gradient_Swatch_1" />
  </defs>
  <rect
     x="14"
     y="24"
     width="2"
     height="2"
     style="fill:url(#New_Gradient_Swatch_1)"
     id="rect12" />
  <rect
     x="18"
     y="24"
     width="5"
     height="2"
     style="fill:url(#New_Gradient_Swatch_1-2)"
     id="rect14" />
  <path
     d="m 57,22 h -2 v -1 c 0,-0.552285 -0.447715,-1 -1,-1 H 52 V 13 C 51.996139,6.9264679 47.073532,2.0038613 41,2 H 8 C 7.4477153,2 7,2.4477153 7,3 v 6 c 0.00653,3.414025 1.942522,6.530975 5,8.05 V 20 h -2 c -0.5522847,0 -1,0.447715 -1,1 v 1 H 7 c -2.209139,0 -4,1.790861 -4,4 v 7 c 0,2.209139 1.790861,4 4,4 h 2.18 c 0.4252305,1.193852 1.552696,1.993472 2.82,2 v 3 c 0,11.045702 8.954305,19.999991 20,19.999991 11.045695,0 20,-8.954289 20,-19.999991 v -3 c 1.267304,-0.0065 2.39477,-0.806148 2.82,-2 H 57 c 2.209139,0 4,-1.790861 4,-4 v -7 c 0,-2.209139 -1.790861,-4 -4,-4 z m -7,-4 v 2 H 14 v -2.23 c 0.655611,0.15328 1.326709,0.230457 2,0.23 z M 32,60 C 22.06504,59.985131 17.306298,54.373055 17.291429,44.438095 L 24.361905,41.80381 28,39 c 0.377357,0.0017 0.722712,-0.211745 0.89,-0.55 L 29.62,37 h 4.76 l 0.73,1.45 c 0.167288,0.338255 0.512643,0.551676 0.89,0.55 l 10.586667,1.340952 C 39.588385,49.801004 42.692734,59.706639 32,60 Z M 53,36 c 0.499017,0.236643 -0.447715,1 -1,1 H 36.62 L 35.89,35.55 C 35.722712,35.211745 35.377357,34.998324 35,35 h -6 c -0.377357,-0.0017 -0.722712,0.211745 -0.89,0.55 L 12.141905,26.881905 12,37 c -0.0077,0.55223 -1,-0.447715 -1,-1 V 22 l 17.619048,2.438095 z"
     style="fill:url(#New_Gradient_Swatch_1-3)"
     id="path16"
     sodipodi:nodetypes="scsscccsscccsscssssccsssccsssscccccccccccccccccssccccccssccs" />
  <path
     d="M 40,43 H 24 c -0.552285,0 -1,0.447715 -1,1 v 2 c 0,4.970566 4.029437,8.999996 9,8.999996 4.970563,0 9,-4.02943 9,-8.999996 v -2 c 0,-0.552285 -0.447715,-1 -1,-1 z"
     style="fill:url(#New_Gradient_Swatch_1-4)"
     id="path18"
     sodipodi:nodetypes="ssssssss" />
</svg>
